<?xml version="1.0" standalone="no"?>
<!DOCTYPE svg PUBLIC "-//W3C//DTD SVG 20010904//EN"
 "http://www.w3.org/TR/2001/REC-SVG-20010904/DTD/svg10.dtd">
<svg version="1.0" xmlns="http://www.w3.org/2000/svg"
 width="361.000000pt" height="232.000000pt" viewBox="0 0 361.000000 232.000000"
 preserveAspectRatio="xMidYMid meet">

<g transform="translate(0.000000,232.000000) scale(0.100000,-0.100000)"
fill="#000000" stroke="none">
<path d="M1790 2029 l0 -185 -48 -47 c-26 -26 -51 -47 -54 -47 -4 0 -10 20
-13 45 l-7 44 -132 77 c-72 42 -159 92 -193 111 l-63 34 0 -178 0 -178 -100
-101 -100 -101 0 -301 c0 -165 -3 -307 -6 -316 -5 -14 -32 -16 -200 -16 -167
0 -194 -2 -194 -15 0 -13 28 -15 218 -13 l217 3 3 324 2 325 78 75 77 74 5
-399 c4 -346 7 -399 20 -399 13 0 15 71 18 573 1 314 6 572 10 572 31 -1 32
-16 34 -581 l3 -564 93 -3 c50 -1 92 1 93 5 0 4 2 167 4 362 l4 354 108 108
c59 60 111 109 115 109 5 0 8 -211 8 -470 0 -463 0 -470 20 -470 22 0 22 -16
20 946 0 170 3 313 6 317 4 4 13 2 21 -4 11 -9 13 -126 13 -635 l0 -624 60 0
60 0 0 520 0 521 31 17 c17 9 60 34 95 55 36 21 69 35 74 32 11 -7 14 -457 3
-468 -3 -4 -34 9 -69 28 -34 19 -67 35 -73 35 -8 0 -11 -110 -11 -371 0 -347
1 -370 18 -367 16 3 17 28 20 341 1 218 6 337 12 337 13 0 93 -50 102 -64 4
-6 8 -147 8 -314 0 -284 1 -303 18 -300 16 3 17 26 20 296 1 160 5 292 8 292
3 0 18 -7 34 -15 l30 -15 2 -278 3 -277 313 -3 c271 -2 312 0 312 13 0 12 -30
15 -197 17 l-198 3 -3 310 -2 310 -150 99 -150 99 0 178 c0 125 -3 179 -11
179 -12 0 -84 -37 -168 -87 -30 -18 -58 -33 -63 -33 -4 0 -8 19 -8 43 0 40 -5
47 -100 142 l-100 100 0 -186z"/>
<path d="M460 569 c0 -112 -9 -139 -45 -139 -18 0 -25 -5 -25 -20 0 -38 79
-17 99 27 6 13 11 71 11 128 0 98 -1 105 -20 105 -19 0 -20 -7 -20 -101z"/>
<path d="M756 662 c-7 -12 -96 -258 -96 -266 0 -4 10 -6 22 -4 15 2 25 13 32
36 9 31 10 32 66 32 56 0 57 -1 66 -32 7 -23 17 -34 32 -36 12 -2 22 0 22 5 0
4 -21 68 -47 140 -42 116 -51 133 -70 133 -12 0 -24 -4 -27 -8z m47 -95 c9
-30 17 -57 17 -60 0 -4 -18 -7 -40 -7 -22 0 -40 3 -40 7 0 16 34 113 40 113 3
0 14 -24 23 -53z"/>
<path d="M1070 530 c0 -133 1 -140 20 -140 18 0 20 7 20 56 0 52 1 55 23 52
14 -2 35 -22 57 -55 25 -39 40 -53 57 -53 28 0 24 11 -31 83 l-34 45 24 10
c46 22 43 104 -6 129 -14 7 -49 13 -77 13 l-53 0 0 -140z m120 81 c5 -11 10
-24 10 -30 0 -19 -32 -41 -61 -41 -28 0 -29 2 -29 45 0 45 0 45 35 45 24 0 37
-6 45 -19z"/>
<path d="M1430 530 c0 -132 1 -140 20 -140 17 0 19 8 22 67 l3 68 49 -68 c37
-49 56 -67 73 -67 13 0 23 2 23 5 0 3 -24 35 -52 71 -29 36 -52 68 -52 71 1 3
25 34 53 69 49 61 50 64 27 64 -19 0 -37 -16 -76 -66 l-50 -67 0 67 c0 59 -2
66 -20 66 -19 0 -20 -7 -20 -140z"/>
<path d="M1760 664 c0 -3 18 -44 40 -91 29 -63 40 -99 40 -134 0 -42 3 -49 20
-49 17 0 20 7 20 46 0 34 12 71 44 140 41 86 43 94 25 94 -15 0 -28 -18 -53
-71 l-33 -70 -31 70 c-24 55 -36 71 -51 71 -12 0 -21 -3 -21 -6z"/>
<path d="M2130 530 c0 -133 1 -140 20 -140 18 0 20 8 22 105 l3 106 65 -105
c51 -82 70 -105 88 -106 22 0 22 1 22 140 0 133 -1 140 -20 140 -18 0 -20 -8
-22 -105 l-3 -104 -65 104 c-51 83 -69 105 -87 105 -23 0 -23 -1 -23 -140z"/>
<path d="M2760 575 c0 -120 14 -158 65 -175 45 -15 96 -6 121 21 16 18 20 40
22 135 4 110 3 114 -17 114 -20 0 -21 -5 -21 -98 0 -111 -13 -142 -58 -142
-56 0 -72 35 -72 156 0 77 -2 84 -20 84 -19 0 -20 -7 -20 -95z"/>
<path d="M3160 530 c0 -133 1 -140 20 -140 19 0 20 7 20 140 0 133 -1 140 -20
140 -19 0 -20 -7 -20 -140z"/>
<path d="M190 265 c0 -43 4 -75 10 -75 6 0 10 11 10 24 0 18 7 25 29 29 69 14
56 97 -14 97 l-35 0 0 -75z m65 25 c0 -18 -6 -26 -22 -28 -20 -3 -23 1 -23 28
0 27 3 31 23 28 16 -2 22 -10 22 -28z"/>
<path d="M438 289 c-12 -6 -18 -22 -18 -45 0 -27 5 -37 24 -46 14 -6 33 -7 43
-3 15 7 13 9 -11 14 -44 9 -45 31 -2 31 40 0 47 17 20 44 -18 18 -32 20 -56 5z
m47 -19 c4 -6 -5 -10 -19 -10 -14 0 -26 5 -26 10 0 6 9 10 19 10 11 0 23 -4
26 -10z"/>
<path d="M640 245 c0 -64 20 -76 21 -12 l1 42 15 -42 c8 -24 18 -43 23 -43 5
0 15 19 23 43 l15 42 1 -42 c1 -64 21 -52 21 12 0 67 -21 75 -39 15 -14 -46
-25 -45 -41 5 -18 56 -40 45 -40 -20z"/>
<path d="M916 284 c-32 -32 -10 -94 34 -94 26 0 50 27 50 55 0 28 -24 55 -50
55 -10 0 -26 -7 -34 -16z m59 -39 c0 -25 -4 -30 -25 -30 -16 0 -26 6 -28 18
-6 30 6 49 30 45 18 -2 23 -9 23 -33z"/>
<path d="M1140 245 c0 -30 5 -55 10 -55 6 0 10 11 10 25 0 20 5 25 25 25 20 0
25 -5 25 -25 0 -14 5 -25 10 -25 6 0 10 25 10 55 0 30 -4 55 -10 55 -5 0 -10
-9 -10 -20 0 -15 -7 -20 -25 -20 -18 0 -25 5 -25 20 0 11 -4 20 -10 20 -5 0
-10 -25 -10 -55z"/>
<path d="M1360 290 c0 -5 7 -10 15 -10 11 0 15 -12 15 -45 0 -25 5 -45 10 -45
6 0 10 20 10 45 0 33 4 45 15 45 8 0 15 5 15 10 0 6 -18 10 -40 10 -22 0 -40
-4 -40 -10z"/>
<path d="M1740 245 c0 -30 5 -55 10 -55 6 0 10 20 10 45 0 41 2 45 25 45 23 0
25 -4 25 -45 0 -25 5 -45 10 -45 6 0 10 25 10 55 l0 55 -45 0 -45 0 0 -55z"/>
<path d="M1986 284 c-32 -32 -10 -94 34 -94 26 0 50 27 50 55 0 28 -24 55 -50
55 -10 0 -26 -7 -34 -16z m59 -39 c0 -25 -4 -30 -25 -30 -16 0 -26 6 -28 18
-6 30 6 49 30 45 18 -2 23 -9 23 -33z"/>
<path d="M2230 278 c-1 -13 -7 -34 -15 -48 -8 -14 -14 -36 -13 -50 0 -17 2
-19 5 -7 6 23 83 25 83 2 0 -8 5 -15 10 -15 6 0 10 11 10 25 0 14 -4 25 -10
25 -5 0 -10 20 -10 45 0 43 -1 45 -30 45 -24 0 -30 -4 -30 -22z m40 -33 c0
-28 -4 -35 -20 -35 -23 0 -23 -2 -9 39 15 41 29 40 29 -4z"/>
<path d="M2610 245 c0 -30 5 -55 10 -55 6 0 10 12 10 28 l1 27 20 -27 c11 -16
28 -28 37 -28 13 0 10 6 -10 27 l-27 26 20 29 c26 35 8 37 -20 2 l-21 -27 0
27 c0 14 -4 26 -10 26 -5 0 -10 -25 -10 -55z"/>
<path d="M2846 284 c-3 -9 -6 -24 -6 -34 0 -10 -7 -26 -16 -35 -9 -9 -13 -19
-9 -23 11 -11 45 38 45 64 0 15 6 24 15 24 11 0 15 -12 15 -45 0 -25 5 -45 10
-45 6 0 10 25 10 55 0 54 -1 55 -29 55 -17 0 -31 -6 -35 -16z"/>
<path d="M3050 245 c0 -30 5 -55 10 -55 6 0 10 11 10 25 0 30 29 35 37 5 11
-40 78 -37 89 5 9 38 1 59 -28 69 -23 8 -32 6 -51 -12 -29 -27 -47 -28 -47 -2
0 11 -4 20 -10 20 -5 0 -10 -25 -10 -55z m125 0 c0 -23 -5 -31 -21 -33 -24 -3
-38 20 -28 50 4 13 13 18 27 16 17 -2 22 -10 22 -33z"/>
<path d="M3340 266 c0 -37 21 -53 54 -40 12 4 16 0 16 -15 0 -12 5 -21 10 -21
6 0 10 25 10 55 0 56 -16 77 -22 28 -2 -20 -9 -29 -25 -31 -20 -3 -23 1 -23
27 0 17 -4 31 -10 31 -5 0 -10 -15 -10 -34z"/>
</g>
</svg>
